HIERARCHY
ROOT Pelvis
{
	OFFSET 0.000000 0.000000 0.000000
	CHANNELS 6 Xposition Yposition Zposition Xrotation Yrotation Zrotation
	JOINT LeftUpLeg_virtual
	{
		OFFSET 0.000000 0.000000 0.000000
		CHANNELS 3 Xrotation Yrotation Zrotation
		JOINT LeftUpLeg
		{
			OFFSET 18.735201 -5.666702 -4.541200
			CHANNELS 3 Xrotation Yrotation Zrotation
			JOINT LeftLeg
			{
				OFFSET -0.021200 -31.938179 0.493100
				CHANNELS 3 Xrotation Yrotation Zrotation
				JOINT LeftFoot
				{
					OFFSET 0.021200 -31.938179 -4.336299
					CHANNELS 3 Xrotation Yrotation Zrotation
					JOINT LeftToeBase
					{
						OFFSET 0.943001 -26.722000 15.023500
						CHANNELS 3 Xrotation Yrotation Zrotation
						End Site
						{
							OFFSET 0 0 0
						}
					}
				}
			}
		}
	}
	JOINT RightUpLeg_virtual
	{
		OFFSET 0.000000 0.000000 0.000000
		CHANNELS 3 Xrotation Yrotation Zrotation
		JOINT RightUpLeg
		{
			OFFSET -18.735201 -5.666702 -4.541200
			CHANNELS 3 Xrotation Yrotation Zrotation
			JOINT RightLeg
			{
				OFFSET 0.018946 -31.938133 0.493100
				CHANNELS 3 Xrotation Yrotation Zrotation
				JOINT RightFoot
				{
					OFFSET -0.018946 -31.938126 -4.336299
					CHANNELS 3 Xrotation Yrotation Zrotation
					JOINT RightToeBase
					{
						OFFSET -0.943001 -26.722004 15.023500
						CHANNELS 3 Xrotation Yrotation Zrotation
						End Site
						{
							OFFSET 0 0 0
						}
					}
				}
			}
		}
	}
	JOINT Hips_virtual
	{
		OFFSET 0.000000 0.000000 0.000000
		CHANNELS 3 Xrotation Yrotation Zrotation
		JOINT Hips
		{
			OFFSET -0.000000 -0.000000 -0.000000
			CHANNELS 3 Xrotation Yrotation Zrotation
			JOINT Spine
			{
				OFFSET 0.000000 10.199997 -0.299500
				CHANNELS 3 Xrotation Yrotation Zrotation
				JOINT Spine1
				{
					OFFSET 0.000000 11.900002 -1.516600
					CHANNELS 3 Xrotation Yrotation Zrotation
					JOINT Spine2
					{
						OFFSET 0.000000 13.600006 -2.842500
						CHANNELS 3 Xrotation Yrotation Zrotation
						JOINT Neck_virtual
						{
							OFFSET 0.000000 0.000000 0.000000
							CHANNELS 3 Xrotation Yrotation Zrotation
							JOINT Neck
							{
								OFFSET 0.000000 9.624100 -2.890100
								CHANNELS 3 Xrotation Yrotation Zrotation
								JOINT Head
								{
									OFFSET 0.000000 14.068802 -1.351900
									CHANNELS 3 Xrotation Yrotation Zrotation
									End Site
									{
										OFFSET 0 0 0
									}
								}
							}
						}
						JOINT LeftShoulder_virtual
						{
							OFFSET 0.000000 0.000000 0.000000
							CHANNELS 3 Xrotation Yrotation Zrotation
							JOINT LeftShoulder
							{
								OFFSET 15.263000 10.923401 -0.547700
								CHANNELS 3 Xrotation Yrotation Zrotation
								JOINT LeftArm
								{
									OFFSET 25.438599 -2.830597 -13.032500
									CHANNELS 3 Xrotation Yrotation Zrotation
									JOINT LeftForeArm
									{
										OFFSET 29.960503 0.000000 0.000000
										CHANNELS 3 Xrotation Yrotation Zrotation
										JOINT LeftHand
										{
											OFFSET 27.849251 0.000000 0.000000
											CHANNELS 3 Xrotation Yrotation Zrotation
											End Site
											{
												OFFSET 0 0 0
											}
										}
									}
								}
							}
						}
						JOINT RightShoulder_virtual
						{
							OFFSET 0.000000 0.000000 0.000000
							CHANNELS 3 Xrotation Yrotation Zrotation
							JOINT RightShoulder
							{
								OFFSET -15.263000 10.923401 -0.547700
								CHANNELS 3 Xrotation Yrotation Zrotation
								JOINT RightArm
								{
									OFFSET -25.438599 -2.830597 -13.032500
									CHANNELS 3 Xrotation Yrotation Zrotation
									JOINT RightForeArm
									{
										OFFSET -29.960503 0.000000 0.000000
										CHANNELS 3 Xrotation Yrotation Zrotation
										JOINT RightHand
										{
											OFFSET -27.849251 0.000000 0.000000
											CHANNELS 3 Xrotation Yrotation Zrotation
											End Site
											{
												OFFSET 0 0 0
											}
										}
									}
								}
							}
						}
					}
				}
			}
		}
	}
}
MOTION
Frames: 6
Frame Time: 0.03333333
10.872966 82.775513 4.729042 0.000000 0.000000 0.000000 12.314400 1.829085 -9.939466 -57.239693 -10.813021 30.880662 49.903841 -4.363390 -2.527370 -1.319137 2.006233 -14.661819 0.000000 0.000000 0.000000 11.733739 2.890081 -10.531205 -39.259248 -27.265991 1.040196 52.745610 6.563678 -0.704698 -26.998042 -18.160187 -9.992546 0.000000 0.000000 0.000000 12.310601 2.295814 -10.075276 -1.166006 -1.309902 -0.852689 10.579280 -3.886142 -6.792688 6.684672 -2.060704 -6.228262 0.000000 0.000000 0.000000 6.604606 -1.937719 -6.494244 -2.457180 0.356083 -2.579374 0.000000 0.000000 0.000000 6.474375 -1.843076 -6.720045 1.498986 -6.838945 -7.637076 -34.208825 4.576179 -19.737387 4.472798 -50.504106 2.627053 0.000000 0.000000 0.000000 7.551817 -1.872796 -6.499505 0.414217 1.959236 2.701661 28.152561 -12.200343 73.944530 21.379279 83.560753 -18.829092 0.000000 0.000000 0.000000 
10.763912 82.042343 3.610001 0.000000 0.000000 0.000000 11.885190 0.303007 -9.380986 -57.410479 -11.082559 30.403549 51.234185 -3.696221 -2.289053 -2.550560 1.911655 -14.990959 0.000000 0.000000 0.000000 11.336947 1.541698 -9.943360 -41.552415 -25.344966 1.376258 54.837540 5.866266 -1.047965 -27.107701 -18.499448 -10.266649 0.000000 0.000000 0.000000 11.831322 0.817854 -9.526450 -1.279097 -1.182422 -0.769577 11.548720 -3.196056 -6.383564 7.075583 -1.731055 -6.040712 0.000000 0.000000 0.000000 7.047941 -1.680379 -6.290565 -2.287857 0.366960 -2.474574 0.000000 0.000000 0.000000 6.898127 -1.557007 -6.496834 1.465644 -6.904845 -8.491091 -31.120517 9.477319 -22.690872 4.049237 -48.008881 2.212199 0.000000 0.000000 0.000000 7.795729 -1.632563 -6.291120 0.456443 3.052517 3.778390 24.591020 -9.292130 72.224264 12.045814 79.406044 -9.520621 0.000000 0.000000 0.000000 
10.571936 81.518257 2.667988 0.000000 0.000000 0.000000 11.329529 -1.058731 -8.918003 -57.523723 -11.103341 30.161504 52.605004 -2.800909 -2.184356 -2.917644 1.861757 -15.067951 0.000000 0.000000 0.000000 10.860807 0.194444 -9.447662 -43.331844 -23.750940 1.755863 56.403528 5.235460 -1.200018 -26.806759 -18.567864 -10.103851 0.000000 0.000000 0.000000 11.290987 -0.553179 -9.087277 -1.331608 -1.114131 -0.667028 12.243838 -2.633356 -6.103974 7.391412 -1.471796 -5.870719 0.000000 0.000000 0.000000 7.397968 -1.453717 -6.099046 -2.097394 0.392935 -2.359318 0.000000 0.000000 0.000000 7.229456 -1.303423 -6.263883 1.395640 -6.949631 -9.393103 -28.255712 13.501448 -26.483367 3.505901 -44.783911 1.823111 0.000000 0.000000 0.000000 7.958923 -1.412743 -6.081913 0.493199 4.003289 4.912397 20.530575 -6.190098 70.460047 7.803331 74.745642 -5.390515 0.000000 0.000000 0.000000 
10.307614 81.284424 1.927876 0.000000 0.000000 0.000000 10.682162 -2.207029 -8.610894 -57.758921 -10.851669 30.114195 54.055497 -1.698332 -2.247632 -2.705740 1.879699 -14.719428 0.000000 0.000000 0.000000 10.345290 -0.988284 -9.107337 -44.509030 -22.642482 2.271096 57.419146 4.589520 -1.117688 -26.043255 -18.436612 -9.897881 0.000000 0.000000 0.000000 10.735679 -1.736722 -8.773720 -1.323314 -1.170551 -0.615845 12.572456 -2.246800 -5.919979 7.581370 -1.275492 -5.707342 0.000000 0.000000 0.000000 7.580271 -1.264243 -5.918465 -1.897128 0.428092 -2.231687 0.000000 0.000000 0.000000 7.425650 -1.087104 -6.036291 1.303955 -6.962453 -10.302205 -25.681752 16.297146 -30.665326 2.944643 -41.223723 1.511097 0.000000 0.000000 0.000000 7.991953 -1.223500 -5.887571 0.539505 4.767357 6.011875 16.401480 -2.885981 68.938226 5.618294 70.047169 -3.371858 0.000000 0.000000 0.000000 
9.936802 81.334373 1.292374 0.000000 0.000000 0.000000 10.005231 -3.126957 -8.462377 -57.932886 -10.647601 30.017257 55.338199 -0.620646 -2.295090 -2.500281 1.843430 -14.019909 0.000000 0.000000 0.000000 9.790381 -1.971798 -8.953688 -44.740645 -21.808688 3.146798 57.499217 3.893824 -0.920632 -25.040896 -18.142881 -10.014767 0.000000 0.000000 0.000000 10.178479 -2.713140 -8.598541 -1.262948 -1.287525 -0.542216 12.493185 -2.037009 -5.794107 7.605160 -1.141261 -5.564552 0.000000 0.000000 0.000000 7.552365 -1.109645 -5.755088 -1.692105 0.468252 -2.083963 0.000000 0.000000 0.000000 7.430525 -0.919676 -5.841136 1.215104 -6.931522 -11.180434 -23.476296 17.620071 -34.694943 2.470878 -37.821039 1.297346 0.000000 0.000000 0.000000 7.852365 -1.077199 -5.728274 0.621033 5.343527 7.059567 12.700411 0.426513 67.664082 4.423006 65.783150 -2.370714 0.000000 0.000000 0.000000 
9.491679 81.649803 0.873051 0.000000 0.000000 0.000000 9.337763 -3.894335 -8.413680 -57.670272 -10.458203 29.801553 56.157231 0.260588 -2.193722 -2.532078 1.711357 -13.161401 0.000000 0.000000 0.000000 9.171232 -2.792004 -8.925313 -43.840717 -20.931337 4.422755 56.335380 3.177808 -0.764793 -23.949488 -17.676653 -10.509300 0.000000 0.000000 0.000000 9.564922 -3.419584 -8.523853 -1.206483 -1.440030 -0.535021 12.026905 -1.988924 -5.710500 7.438689 -1.071099 -5.453775 0.000000 0.000000 0.000000 7.297834 -0.997038 -5.614235 -1.475889 0.509719 -1.908319 0.000000 0.000000 0.000000 7.225614 -0.803590 -5.690451 1.139836 -6.880168 -12.006755 -21.780981 17.500794 -38.073295 2.098149 -35.031449 1.136429 0.000000 0.000000 0.000000 7.527143 -0.986987 -5.620904 0.741012 5.713606 7.974641 9.964805 3.499584 66.516644 3.772389 62.416605 -1.911329 0.000000 0.000000 0.000000 
